# xmcd
#
# Track frame offsets:
#	182
#	3310
#	40532
#	50420
#	60387
#	72350
#	85345
#	102927
#	107837
#	124282
#	131772
#	145800
#	160315
#	174565
#	186277
#	202992
#	227640
#	239260
#	263795
#	280587
#	297792
#
# Disc length: 4171 seconds
#
# Revision: 0
# Processed by: cddbd v1.5.2PL0 Copyright (c) Steve Scherf et al.
# Submitted via: dBpowerAMP V4.0
#
DISCID=28104915
DTITLE=Christmas - Carpenters - Christmas Portrait
DYEAR=1978
DGENRE=Christmas
TTITLE0=It Came Upon a Midnight Clear
TTITLE1=Overture
TTITLE2=An Old-fashioned Christmas
TTITLE3=Christmas Waltz
TTITLE4=Sleigh Ride
TTITLE5=It's Christmas Time
TTITLE6=Have Yourself a Merry Little Christmas
TTITLE7=Santa Claus is Comin' to Town
TTITLE8=Christmas Song
TTITLE9=Carol of the Bells
TTITLE10=Merry Christmas Darling
TTITLE11=Christ is Born
TTITLE12=O Holy Night
TTITLE13=Home for the Holidays
TTITLE14=Medley: Here Comes Santa Claus - Frosty the Snowman - Rudolph the Red-nosed Reindeer - Good King Wenceslas
TTITLE15=Winter Wonderland - Silver Bells - White Christmas
TTITLE16=Ave Maria
TTITLE17=Selections from Nutcracker Overture Miniature -Dance of the Sugar Plum Fairies - Valse Des Fleurs
TTITLE18=Little Altar Boy
TTITLE19=I'll Be Home for Christmas
TTITLE20=Silent Night
EXTD=
EXTT0=
EXTT1=
EXTT2=
EXTT3=
EXTT4=
EXTT5=
EXTT6=
EXTT7=
EXTT8=
EXTT9=
EXTT10=
EXTT11=
EXTT12=
EXTT13=
EXTT14=
EXTT15=
EXTT16=
EXTT17=
EXTT18=
EXTT19=
EXTT20=
PLAYORDER=
